<svg width="29" height="29" viewBox="0 0 29 29" fill="none" xmlns="http://www.w3.org/2000/svg">
<circle cx="14.5" cy="14.5" r="14.5" fill="#CCF6E0"/>
<path d="M6.0287 10.7121C6.88581 8.79497 8.36781 7.22526 10.2325 6.25944C12.0972 5.29363 14.2344 4.98882 16.2947 5.39484C18.3551 5.80085 20.2168 6.89368 21.5757 8.49473C22.9346 10.0958 23.7103 12.1104 23.776 14.2093C23.8417 16.3083 23.1936 18.3675 21.9375 20.0504C20.6814 21.7333 18.8917 22.9405 16.8608 23.4746C14.8299 24.0087 12.6778 23.8382 10.7563 22.9909C8.83488 22.1436 7.25759 20.6697 6.28222 18.8099M5.54395 9.73092L5.99096 10.8772L7.13725 10.4302" stroke="#00D463" stroke-linecap="round" stroke-linejoin="round"/>
<path d="M15.0799 6.95996V15.08L10.4399 17.4" stroke="#00D463" stroke-linecap="round" stroke-linejoin="round"/>
</svg>
